PathFileType	4	(X/Y/Z)	D:\Long Term Storage\D'Arcy Smith\Coord19.trc
DataRate	CameraRate	NumFrames	NumMarkers	Units	OrigDataRate	OrigDataStartFrame	OrigNumFrames
120.00	120.00	      151	4	mm	120.00	3678	      4903
Frame#	Time	M1			M2			M3			M4			
		X1	Y1	Z1	X2	Y2	Z2	X3	Y3	Z3	X4	Y4	Z4	

3678	30.642	657.81409	369.66092	168.53973	949.03009	318.53113	405.51926							
3679	30.650	660.14209	381.85187	145.07050	948.51532	316.34421	394.57431							
3680	30.658	662.29205	394.93768	123.52713	947.89044	314.24948	382.96982							
3681	30.667	662.75256	408.13815	104.55982	947.52112	312.43243	370.65540							
3682	30.675	662.74152	421.91766	87.51883	947.24896	310.75684	357.75604							
3683	30.683	662.62054	435.29361	73.21632	947.20898	309.44238	344.36633							
3684	30.692	662.04462	448.22400	61.26913	947.27722	308.43481	330.40027							
3685	30.700	661.00952	459.91409	52.20949	947.56256	307.78812	315.89398							
3686	30.708	659.60663	470.36447	45.27672	948.06934	307.58316	300.73328							
3687	30.717	658.01093	479.25998	40.54428	948.65375	307.77118	285.49741							
3688	30.725	656.18872	486.62366	37.39135	949.49811	308.47943	269.75266							
3689	30.733	654.49689	492.76443	35.58847	950.52655	309.50998	253.87878							
3690	30.742	653.40247	498.11414	34.48481	951.58423	311.37985	237.75291							
3691	30.750	651.20343	502.42245	34.48611	952.67706	313.52173	222.29918							
3692	30.758	649.11938	505.83521	34.58743	953.90192	316.41592	206.59166							
3693	30.767	647.33002	509.01956	34.80286	955.41760	319.78384	191.05423							
3694	30.775	645.71112	511.90112	34.93226	956.67310	323.62750	176.43687							
3695	30.783	644.09668	514.33075	34.93181	958.18854	327.74161	161.87767							
3696	30.792	642.70404	516.59344	34.64047	959.53516	332.24466	148.26280							
3697	30.800	641.32086	518.53107	34.13952	960.94806	337.03461	135.45679							
3698	30.808	639.97546	520.41742	33.34980	962.42810	342.03799	123.34566							
3699	30.817	638.82379	522.09283	32.28223	963.86237	347.26361	112.00090							
3700	30.825	637.88641	523.69580	30.86933	965.19135	352.39981	101.00069							
3701	30.833	637.07367	525.02905	29.32298	966.24097	357.44760	91.44357							
3702	30.842	636.42841	526.28021	27.61356	967.31403	362.32294	82.94541							
3703	30.850	635.88055	527.33209	25.80398	968.31165	367.04636	75.56712							
3704	30.858	635.56897	528.07452	24.10685	969.12787	371.35974	69.12222							
3705	30.867	635.49323	528.47626	22.52166	969.68463	375.24222	63.55403							
3706	30.875	635.62762	528.96570	20.93138	970.14368	378.68796	58.86293							
3707	30.883	635.96503	528.07104	20.10544	970.28076	381.60477	55.07527							
3708	30.892	636.46472	527.16876	19.47915	970.13434	383.90390	52.34834							
3709	30.900	637.26373	525.84802	19.12590	969.86078	385.58694	50.31990							
3710	30.908	638.24646	523.94452	19.30410	969.39172	386.68927	49.16219							
3711	30.917	639.32202	521.34937	20.20327	968.71649	387.17966	48.73538							
3712	30.925	640.67670	518.86597	21.05029	967.78638	386.98398	49.07867							
3713	30.933	641.99036	515.21484	22.81869	966.31580	386.07242	49.76556							
3714	30.942	643.77399	512.08246	24.62024	964.90448	384.73004	51.68959							
3715	30.950	645.44067	508.01926	27.10768	963.52277	382.90024	53.86888							
3716	30.958	647.46259	503.54727	30.38149	961.90796	380.53241	57.15863							
3717	30.967	649.31384	498.82196	33.21376	960.16656	377.64749	60.90628							
3718	30.975	651.30151	493.98093	36.40530	958.22974	374.29120	65.25946							
3719	30.983	653.44440	488.66437	40.05156	956.23706	370.93024	70.39791							
3720	30.992	655.57928	483.07257	44.14735	954.59833	367.08365	76.59344							
3721	31.000	657.81464	477.02222	48.50671	952.30048	363.14355	82.65241							
3722	31.008	660.03809	470.52673	53.43652	950.07104	358.86841	89.85242							
3723	31.017	662.23529	463.49936	59.02752	947.94525	354.64005	98.01046							
3724	31.025	664.54388	455.82666	65.55647	945.59583	349.87784	106.39995							
3725	31.033	666.64844	447.41043	73.18453	943.17786	345.15796	115.19123							
3726	31.042	668.83002	438.34195	81.98375	940.80371	340.39227	124.94048							
3727	31.050	670.92865	428.90842	92.17715	938.45911	335.66702	135.14671							
3728	31.058	673.08636	419.08368	103.03626	936.04651	330.97382	145.73676							
3729	31.067	674.98566	408.19101	116.83805	933.73157	326.41205	157.03172							
3730	31.075	676.47241	397.84946	131.44794	931.60712	322.03378	169.12521							
3731	31.083	677.42859	387.01111	147.68576	929.60284	317.91031	181.69191							
3732	31.092	678.60797	377.20001	164.66875	927.57159	314.06592	194.55916							
3733	31.100	679.43738	367.91519	182.69827	925.75317	310.50583	208.00490							
3734	31.108	679.81104	359.32080	201.49533	924.02301	307.35641	221.92572							
3735	31.117	679.91895	351.71432	221.23628	922.53668	304.91849	236.10492							
3736	31.125	679.16913	344.74933	244.01910	921.08582	302.80533	250.81319							
3737	31.133	678.13135	339.06842	264.78589	919.89337	301.17731	265.58517							
3738	31.142	676.74298	334.28375	285.82358	918.82458	300.29340	280.70294							
3739	31.150	674.86731	330.61780	307.23343	917.89905	299.85825	295.79196							
3740	31.158	672.29260	328.01416	329.08908	917.27063	299.88251	310.83908							
3741	31.167	669.88318	327.34241	350.75375	916.78748	300.76166	325.96121							
3742	31.175	666.56775	327.35901	370.43390	916.47461	301.94205	340.91733							
3743	31.183	662.29907	328.52585	392.10968	916.37329	303.85193	355.68719							
3744	31.192	657.87408	331.10730	413.38074	916.35229	306.38281	370.15167							
3745	31.200	653.05780	335.17087	433.98758	916.64862	309.42923	384.18176							
3746	31.208	647.79596	340.41870	453.87421	916.77307	313.17212	398.28256							
3747	31.217	641.99506	346.46286	474.07474	917.28076	317.23007	411.21527							
3748	31.225	636.52917	353.61719	491.96738	917.86456	321.53558	423.83203							
3749	31.233	631.04523	361.77945	508.54501	918.47455	326.13858	435.98322							
3750	31.242	625.76093	370.49966	524.44574	919.25055	330.93054	447.07712							
3751	31.250	620.20325	380.25922	538.54193	920.20825	336.04160	457.69290							
3752	31.258	615.18811	390.30106	551.58826	921.03326	341.00314	467.68829							
3753	31.267	610.41168	400.87924	563.13794	921.94391	346.15747	476.75360							
3754	31.275	606.09082	411.38177	573.71222	922.85016	351.15283	485.43103							
3755	31.283	602.05951	422.04364	583.00531	923.87738	355.95599	492.86227							
3756	31.292	598.41504	432.25000	590.81488	924.71149	360.58200	500.20297							
3757	31.300	595.31451	442.28052	597.86066	925.53998	364.95578	506.27448							
3758	31.308	592.84137	451.54681	603.43854	926.28656	369.10919	512.30463							
3759	31.317	590.69690	459.56680	608.29675	927.10309	372.64676	517.16376							
3760	31.325	589.44843	466.80295	611.62732	927.76868	375.68839	520.84119							
3761	31.333	587.88300	472.21738	614.50531	928.60620	378.30460	524.17249							
3762	31.342	587.93097	476.45370	615.75391	929.21515	380.23056	526.45410							
3763	31.350	587.50629	478.63739	616.49377	929.73584	381.76498	527.89325							
3764	31.358	588.13275	479.36011	615.92365	930.28595	382.71198	528.77838							
3765	31.367	589.18231	478.29095	614.10913	930.64471	382.97528	528.44885							
3766	31.375	590.88586	475.73157	610.94257	930.90094	382.55042	527.23840							
3767	31.383	592.54852	471.60089	607.19757	931.06427	381.38559	525.49463							
3768	31.392	594.23853	466.22940	602.52301	931.14856	379.68661	522.93555							
3769	31.400	596.05591	459.50150	596.40784	931.27222	377.39304	519.29572							
3770	31.408	597.82776	451.99042	589.30829	931.46997	374.52637	514.76953							
3771	31.417	599.63629	443.86670	580.76880	931.74353	371.34665	509.84167							
3772	31.425	601.54010	435.08151	571.10297	931.67896	367.45441	504.15652							
3773	31.433	603.52014	425.70349	559.93488	931.71637	362.98508	495.20251							
3774	31.442	605.53290	416.03598	547.54572	932.01038	358.27487	487.31970							
3775	31.450	607.64661	406.44644	533.46118	932.40637	353.50055	477.80206							
3776	31.458	609.95514	396.78552	518.19397	932.44269	348.33197	467.57111							
3777	31.467	612.29926	387.47739	501.36191	932.79565	343.13318	456.36130							
3778	31.475	614.56940	378.44635	483.26523	933.25116	338.01306	444.12479							
3779	31.483	616.92828	370.03275	463.87762	933.85132	332.88538	430.94934							
3780	31.492	619.26062	362.46921	441.81058	934.66803	328.08450	416.84537							
3781	31.500	621.35944	355.77509	419.80255	935.64624	323.37823	401.74591							
3782	31.508	623.21735	350.15594	396.61948	936.74182	319.16589	386.14569							
3783	31.517	625.06396	345.86502	372.44135	938.06958	315.38809	370.10419							
3784	31.525	626.59595	342.76910	347.37094	939.47534	312.29855	353.27719							
3785	31.533	628.27643	341.48724	321.62119	941.08069	310.04990	336.36066							
3786	31.542	629.77954	341.84061	295.35803	942.93073	308.35370	319.02884							
3787	31.550	631.00433	343.87378	271.13873	944.85425	307.54788	301.70529							
3788	31.558	632.02356	347.77570	244.90269	946.95264	307.26105	284.18851							
3789	31.567	633.03210	353.41132	219.10919	949.03156	307.88754	266.67407							
3790	31.575	633.64899	360.62268	194.20691	951.21973	309.19681	249.77072							
3791	31.583	634.25903	369.46390	170.07623	953.44647	311.26779	233.07520							
3792	31.592	635.02594	380.39017	144.74353	955.52087	314.06149	216.92459							
3793	31.600	634.94568	391.79950	123.44870	957.63446	317.29587	201.54390							
3794	31.608	634.14282	403.92426	104.03147	959.70294	321.03555	186.52621							
3795	31.617	634.00732	417.71463	86.03203	961.64136	325.10803	172.49223							
3796	31.625	633.51709	431.28906	69.87856	963.45880	329.72552	159.14027							
3797	31.633	632.50354	444.77594	55.58854	965.05811	334.46097	146.75137							
3798	31.642	631.97986	458.36917	43.22822	966.55957	339.40475	135.03798							
3799	31.650	631.45673	471.62952	32.55932	967.70154	344.32910	124.59753							
3800	31.658	631.14282	484.19318	23.73530	968.69940	349.20261	114.81155							
3801	31.667	630.99719	495.74460	16.71591	969.41077	353.69681	105.62378							
3802	31.675	631.48743	506.43585	11.20504	969.93512	357.93759	97.89660							
3803	31.683	631.51440	515.28522	7.25799	970.15289	361.91458	91.31150							
3804	31.692	632.19965	523.14844	4.55788	970.12390	365.50809	85.72865							
3805	31.700	633.02106	530.02625	2.83393	969.96967	368.67487	81.25851							
3806	31.708	634.22345	534.73907	2.52795	969.41693	371.31894	77.53053							
3807	31.717	635.72693	538.66931	2.88357	968.65222	373.43027	74.78845							
3808	31.725	637.94653	541.66577	3.60815	967.70905	374.97870	73.12194							
3809	31.733	639.11041	543.04059	5.21460	966.43359	375.91605	72.14464							
3810	31.742	641.28278	543.63892	6.93967	964.95013	376.32993	71.94000							
3811	31.750	642.97119	542.89929	9.15431	963.35016	376.20026	72.63121							
3812	31.758	644.90674	541.41779	11.36723	961.49689	375.45901	74.17474							
3813	31.767	646.93390	538.93713	13.88985	959.37781	373.96875	76.37840							
3814	31.775	649.13898	535.94397	16.58006	957.24030	372.31403	79.34634							
3815	31.783	651.26312	532.01892	19.44043	955.02374	369.87299	83.04874							
3816	31.792	653.09637	527.08826	22.38550	952.56628	367.08026	87.56915							
3817	31.800	654.06030	521.18036	25.74402	950.05347	363.93369	92.63489							
3818	31.808	655.42334	514.93512	29.17412	947.54010	360.57404	98.44158							
3819	31.817	656.86267	508.00998	32.86157	945.08844	356.83133	105.80557							
3820	31.825	658.64783	500.76569	36.77337	942.61066	352.73032	113.11736							
3821	31.833	658.83606	492.47672	41.31199	940.10455	348.53903	120.99740							
3822	31.842	659.77423	483.92896	46.04425	937.53265	344.07568	129.54454							
3823	31.850	660.42657	474.78433	51.19609	935.23096	339.37698	139.15341							
3824	31.858	660.99561	465.64215	56.55790	932.94946	334.73761	149.03522							
3825	31.867	661.19171	455.14774	63.09408	930.72339	330.11111	159.85782							
3826	31.875	661.37939	444.53381	70.23981	928.72461	325.59882	171.27608							
3827	31.883	661.33057	433.52386	78.31843	926.98260	321.32065	183.53239							
3828	31.892	661.18280	422.11044	87.67332	925.42676	317.21625	196.46333							
